<?xml version="1.0" standalone="no"?>
<!DOCTYPE svg PUBLIC "-//W3C//DTD SVG 20010904//EN"
 "http://www.w3.org/TR/2001/REC-SVG-20010904/DTD/svg10.dtd">
<svg version="1.0" xmlns="http://www.w3.org/2000/svg"
 width="100.000000pt" height="100.000000pt" viewBox="0 0 100.000000 100.000000"
 preserveAspectRatio="xMidYMid meet">
<metadata>
Created by potrace 1.14, written by Peter Selinger 2001-2017
</metadata>
<g transform="translate(0.000000,100.000000) scale(0.100000,-0.100000)"
fill="#000000" stroke="none">
<path d="M380 971 c0 -17 14 -46 35 -74 19 -25 35 -49 35 -52 0 -4 -30 -46
-67 -95 -38 -49 -84 -112 -103 -140 -19 -28 -51 -73 -70 -100 -19 -27 -57 -81
-85 -120 -27 -39 -67 -93 -87 -119 -52 -67 -51 -100 4 -140 23 -17 46 -31 50
-31 8 0 100 -62 129 -86 20 -18 518 -21 536 -3 6 6 20 16 31 23 11 6 46 27 77
46 31 19 73 44 93 56 52 29 52 51 -4 131 -26 37 -60 86 -75 108 -15 22 -37 49
-48 59 -12 11 -21 24 -21 31 0 7 -9 20 -20 30 -11 10 -20 22 -20 27 0 5 -15
28 -34 51 -18 23 -50 66 -70 95 -20 29 -54 78 -76 109 -45 66 -45 89 2 139 39
42 36 79 -7 79 -23 0 -35 -8 -58 -43 -16 -23 -33 -40 -38 -36 -5 3 -21 23 -35
45 -17 28 -31 39 -49 39 -21 0 -25 -5 -25 -29z m146 -248 c7 -7 22 -29 35 -50
13 -21 26 -40 29 -43 4 -3 62 -83 130 -178 68 -95 132 -181 141 -190 31 -34
43 -64 28 -73 -8 -5 -18 -9 -22 -9 -5 0 -5 -5 -2 -10 4 -6 3 -9 -2 -8 -14 4
-53 -13 -53 -23 0 -5 -6 -9 -12 -9 -7 0 -24 -9 -37 -19 l-24 -18 -42 81 c-45
88 -186 354 -193 365 -6 11 -34 -32 -85 -130 -30 -58 -61 -117 -70 -130 -8
-13 -18 -35 -22 -48 -6 -19 -49 -97 -71 -129 -2 -4 -152 87 -158 97 -3 4 43
73 102 153 59 80 114 156 122 168 17 25 85 120 97 135 4 6 24 33 43 62 29 43
37 48 44 35 5 -10 15 -23 22 -29z m24 -473 c5 -8 23 -43 41 -78 30 -61 31 -64
13 -77 -14 -10 -51 -14 -133 -15 -104 0 -113 1 -106 18 4 9 10 25 12 35 3 9 9
17 13 17 5 0 11 13 15 29 3 16 12 35 20 41 7 6 16 22 19 35 4 14 11 25 16 25
6 0 10 4 10 9 0 5 5 22 11 37 l10 28 25 -44 c14 -25 29 -52 34 -60z"/>
</g>
</svg>
